<svg xmlns="http://www.w3.org/2000/svg" viewBox="0 0 100 100">
  <path d="M 22 20 L 30 4 L 38 24 Z" fill="#1a1a1a"/>
  <path d="M 78 20 L 70 4 L 62 24 Z" fill="#1a1a1a"/>
  <path d="M 50 14 C 24 14, 14 36, 14 58 C 14 80, 30 94, 50 94 C 70 94, 86 80, 86 58 C 86 36, 76 14, 50 14 Z" fill="#1a1a1a"/>
  <circle cx="34" cy="46" r="13" fill="#f4efe6"/>
  <circle cx="66" cy="46" r="13" fill="#f4efe6"/>
  <circle cx="34" cy="46" r="5" fill="#1a1a1a"/>
  <circle cx="66" cy="46" r="5" fill="#1a1a1a"/>
  <path d="M 50 56 L 44 66 L 56 66 Z" fill="#a4243b"/>
  <path d="M 26 70 Q 32 76, 38 70" stroke="#f4efe6" stroke-width="1.5" fill="none" opacity="0.4"/>
  <path d="M 42 74 Q 50 80, 58 74" stroke="#f4efe6" stroke-width="1.5" fill="none" opacity="0.4"/>
  <path d="M 62 70 Q 68 76, 74 70" stroke="#f4efe6" stroke-width="1.5" fill="none" opacity="0.4"/>
</svg>
